<svg width="52" height="52" viewBox="0 0 52 52" fill="none" xmlns="http://www.w3.org/2000/svg">
<circle cx="26" cy="26" r="17" fill="#5159F6"/>
<path d="M35.4342 24.7301L20.1935 16.2007C19.9396 16.0526 19.6472 15.9839 19.3538 16.0032C19.0605 16.0225 18.7796 16.1291 18.5473 16.3093C18.3101 16.4965 18.1378 16.7536 18.055 17.0442C17.9722 17.3349 17.9831 17.6442 18.0861 17.9283L20.6277 25.0285C20.6534 25.0993 20.7 25.1606 20.7614 25.2043C20.8228 25.2479 20.8961 25.2718 20.9714 25.2728H27.5018C27.6895 25.2698 27.8715 25.3381 28.0108 25.464C28.1501 25.59 28.2365 25.764 28.2525 25.9511C28.2587 26.0499 28.2446 26.1489 28.211 26.2419C28.1774 26.335 28.1251 26.4202 28.0573 26.4923C27.9894 26.5643 27.9076 26.6217 27.8167 26.6609C27.7258 26.7 27.6279 26.7201 27.5289 26.7199H20.9714C20.8961 26.7209 20.8228 26.7448 20.7614 26.7884C20.7 26.8321 20.6534 26.8934 20.6277 26.9642L18.0861 34.0644C18.0098 34.2831 17.9868 34.5169 18.019 34.7463C18.0512 34.9757 18.1377 35.1941 18.2713 35.3834C18.4048 35.5726 18.5816 35.7273 18.7869 35.8346C18.9922 35.9418 19.2202 35.9985 19.4518 36C19.6983 35.9989 19.9407 35.9367 20.1573 35.8191L35.4342 27.2626C35.658 27.1355 35.8441 26.9514 35.9736 26.7289C36.1031 26.5065 36.1713 26.2537 36.1713 25.9963C36.1713 25.739 36.1031 25.4862 35.9736 25.2637C35.8441 25.0413 35.658 24.8572 35.4342 24.7301Z" fill="white"/>
</svg>
