<svg width="52" height="52" viewBox="0 0 52 52" fill="none" xmlns="http://www.w3.org/2000/svg">
<path d="M26.1886 22.8969C26.5791 22.5064 27.2123 22.5064 27.6028 22.8969C27.9933 23.2874 27.9933 23.9206 27.6028 24.3111L23.4309 28.483C22.8639 29.05 22.831 30.0045 23.4309 30.6044C24.0308 31.2042 24.9852 31.1713 25.5522 30.6044L33.3304 22.8262C34.932 21.2246 34.8444 18.6833 33.3304 17.1693C31.8164 15.6553 29.2751 15.5677 27.6735 17.1693L19.8953 24.9475C17.3446 27.4982 17.3922 31.6367 19.8953 34.1399C22.3985 36.6431 26.537 36.6906 29.0877 34.1399L33.2597 29.968C33.6502 29.5774 34.2833 29.5774 34.6739 29.968C35.0644 30.3585 35.0644 30.9917 34.6739 31.3822L30.5019 35.5541C27.1628 38.8933 21.7581 38.8311 18.4811 35.5541C15.2041 32.2771 15.142 26.8724 18.4811 23.5333L26.2593 15.7551C28.6646 13.3498 32.4705 13.481 34.7446 15.7551C37.0187 18.0292 37.1499 21.8351 34.7446 24.2404L26.9664 32.0186C25.6393 33.3456 23.4202 33.4221 22.0167 32.0186C20.6131 30.615 20.6896 28.3959 22.0167 27.0688L26.1886 22.8969Z" fill="#A0A1B0"/>
</svg>
